<svg width="23" height="27" viewBox="0 0 23 27" fill="none" xmlns="http://www.w3.org/2000/svg">
<path d="M7.01414 4.1657L4.54712 0H9.02293L11.49 4.1657H7.01414Z" fill="#FB7B76"/>
<path d="M11.4901 4.1657L13.9571 0H18.4329L15.9659 4.1657H11.4901Z" fill="#FF5364"/>
<path d="M16.2943 4.40179C16.2349 4.16619 16.0853 3.96338 15.8777 3.83711C15.7323 3.74973 15.566 3.70335 15.3964 3.70288H7.58337C7.42852 3.70399 7.27618 3.74207 7.13903 3.81397C6.91167 3.93714 6.74693 4.15063 6.68543 4.40179L6.01892 7.06784H16.9608L16.2943 4.40179Z" fill="#547580"/>
<path d="M11.4898 26.8456C17.3692 26.8456 22.1355 22.0793 22.1355 16.1999C22.1355 10.3204 17.3692 5.5542 11.4898 5.5542C5.61035 5.5542 0.844116 10.3204 0.844116 16.1999C0.844116 22.0793 5.61035 26.8456 11.4898 26.8456Z" fill="#F0C419"/>
<path d="M21.159 11.7518C17.1216 10.2761 12.5928 11.3738 9.67922 14.5344C6.76563 17.695 6.03927 22.298 7.838 26.2022C3.30562 24.5488 0.451644 20.0542 0.882888 15.2489C1.31413 10.4437 4.92279 6.52909 9.67715 5.70909C14.4315 4.88909 19.143 7.36869 21.159 11.7518Z" fill="#F3D55B"/>
<path d="M14.2623 24.9946C14.2191 24.9945 14.1762 24.9884 14.1348 24.9765C13.4715 24.787 12.8287 24.5321 12.2158 24.2155C12.0756 24.143 11.982 24.004 11.9675 23.8468C11.9531 23.6896 12.0198 23.5358 12.1444 23.4389C12.5673 23.1148 12.9373 22.727 13.2414 22.2895C13.3872 22.0821 13.6727 22.0306 13.8818 22.1739C14.0909 22.3173 14.1457 22.6022 14.0048 22.8129C13.7879 23.1281 13.5405 23.4211 13.2662 23.6877C13.6319 23.844 14.0069 23.9772 14.3892 24.0864C14.6114 24.1496 14.7531 24.367 14.7211 24.5958C14.6891 24.8246 14.4932 24.9947 14.2622 24.9945L14.2623 24.9946Z" fill="#F29C1F"/>
<path d="M16.7448 23.6422C16.2211 23.6424 15.6986 23.5949 15.1836 23.5001C15.0419 23.4739 14.9206 23.3832 14.8553 23.2548C14.7899 23.1265 14.7881 22.975 14.8503 22.8451C15.0634 22.4019 15.212 21.9305 15.2915 21.4452C15.3323 21.1928 15.57 21.0213 15.8224 21.0622C16.0747 21.103 16.2462 21.3407 16.2054 21.5931C16.1456 21.961 16.0516 22.3226 15.9247 22.6731C16.2953 22.7124 16.6683 22.725 17.0407 22.7109C17.2962 22.7011 17.5112 22.9003 17.521 23.1558C17.5307 23.4113 17.3315 23.6264 17.076 23.6361C16.9657 23.6402 16.8552 23.6422 16.7448 23.6422Z" fill="#F29C1F"/>
<path d="M17.3497 21.9395C17.2236 21.9395 17.1031 21.8881 17.0158 21.7972C16.9285 21.7062 16.8821 21.5836 16.8873 21.4577C16.908 20.966 16.8675 20.4736 16.7666 19.9918C16.7324 19.83 16.7872 19.6623 16.9102 19.5518C17.0333 19.4413 17.2059 19.4049 17.3631 19.4562C17.5204 19.5075 17.6382 19.6388 17.6724 19.8006C17.7499 20.1693 17.7966 20.5438 17.8121 20.9202C18.1569 20.8414 18.4954 20.7368 18.8246 20.6073C18.979 20.5444 19.1553 20.5694 19.2861 20.6727C19.417 20.7761 19.4821 20.9418 19.4566 21.1066C19.4312 21.2714 19.319 21.4097 19.1631 21.4688C18.6005 21.691 18.0141 21.8474 17.4155 21.9349C17.3937 21.938 17.3717 21.9396 17.3497 21.9395Z" fill="#F29C1F"/>
<path d="M18.6746 19.8117C18.4719 19.8115 18.2928 19.6797 18.2325 19.4862C18.0867 19.0135 17.8872 18.559 17.6379 18.1318C17.5106 17.9115 17.5849 17.6299 17.8042 17.5011C18.0236 17.3722 18.3058 17.4446 18.4361 17.663C18.6255 17.9864 18.7895 18.3239 18.9267 18.6726C19.2223 18.4876 19.504 18.2812 19.7695 18.0552C19.8955 17.9481 20.0691 17.9164 20.2249 17.972C20.3806 18.0277 20.4948 18.1621 20.5245 18.3248C20.5542 18.4875 20.4949 18.6537 20.3688 18.7607C19.9142 19.1486 19.4172 19.4838 18.8872 19.7599C18.8214 19.7939 18.7485 19.8116 18.6746 19.8117Z" fill="#F29C1F"/>
<path d="M19.242 17.3725C19.23 17.3725 19.2178 17.372 19.2058 17.3712C19.0686 17.3604 18.9433 17.2892 18.8639 17.1768C18.5831 16.7763 18.2572 16.4095 17.8927 16.0834C17.7051 15.9128 17.6896 15.623 17.858 15.4335C18.0264 15.2439 18.316 15.2251 18.5075 15.3913C18.7821 15.636 19.0374 15.9015 19.2712 16.1855C19.4974 15.9126 19.7043 15.6242 19.8902 15.3224C20.0245 15.1048 20.3097 15.0373 20.5273 15.1716C20.7449 15.3059 20.8124 15.5912 20.6781 15.8087C20.3628 16.322 19.9925 16.7995 19.5738 17.2326C19.4866 17.3221 19.3669 17.3726 19.242 17.3725Z" fill="#F29C1F"/>
<path d="M19.053 14.8713C18.9532 14.8713 18.8561 14.839 18.7761 14.7793C18.3904 14.4897 17.9715 14.247 17.5284 14.0563C17.3762 13.9915 17.2702 13.8504 17.2503 13.6862C17.2304 13.5221 17.2996 13.3597 17.4318 13.2604C17.564 13.1611 17.7392 13.1398 17.8913 13.2047C18.2266 13.3481 18.5498 13.5181 18.858 13.713C18.9929 13.3781 19.1037 13.034 19.1895 12.6833C19.2277 12.5214 19.3498 12.3924 19.5094 12.3455C19.669 12.2985 19.8415 12.3409 19.9613 12.4563C20.081 12.5718 20.1296 12.7427 20.0885 12.9039C19.9447 13.4947 19.7366 14.0681 19.4679 14.6136C19.4069 14.7367 19.2944 14.8265 19.1608 14.8586C19.1255 14.8669 19.0893 14.8712 19.053 14.8713Z" fill="#F29C1F"/>
<path d="M18.1067 12.5566C18.0586 12.5567 18.0108 12.5492 17.965 12.5345C17.5006 12.384 17.0198 12.29 16.533 12.2545C16.278 12.2365 16.0859 12.0152 16.1038 11.7602C16.1218 11.5052 16.3431 11.313 16.5981 11.331C16.969 11.3575 17.3372 11.414 17.699 11.5001C17.7188 11.1409 17.7102 10.7807 17.6732 10.4229C17.6534 10.257 17.7246 10.0933 17.8595 9.99458C17.9944 9.8959 18.172 9.87759 18.3241 9.94668C18.4763 10.0158 18.5794 10.1615 18.5939 10.328C18.6573 10.9365 18.6476 11.5504 18.5652 12.1566C18.5338 12.3858 18.338 12.5566 18.1067 12.5566Z" fill="#F29C1F"/>
<path d="M8.71775 24.9945C8.48672 24.9947 8.2909 24.8246 8.25889 24.5958C8.22689 24.367 8.36851 24.1496 8.59074 24.0864C8.97304 23.9771 9.3481 23.844 9.71372 23.6877C9.43943 23.4211 9.19204 23.1281 8.97514 22.8129C8.83423 22.6022 8.88908 22.3173 9.09818 22.1739C9.30727 22.0306 9.59278 22.0821 9.73858 22.2895C10.0426 22.727 10.4127 23.1148 10.8355 23.4389C10.9602 23.5358 11.0269 23.6896 11.0124 23.8468C10.998 24.004 10.9044 24.143 10.7642 24.2155C10.1513 24.5321 9.50845 24.787 8.84517 24.9765C8.80375 24.9884 8.76086 24.9945 8.71775 24.9945Z" fill="#F29C1F"/>
<path d="M6.2352 23.6424C6.12489 23.6424 6.01451 23.6404 5.90407 23.6363C5.64857 23.6265 5.44934 23.4115 5.45908 23.156C5.46882 22.9005 5.68384 22.7013 5.93934 22.711C6.31176 22.7254 6.68473 22.7128 7.05533 22.6733C6.92843 22.3228 6.83447 21.9612 6.77466 21.5932C6.74825 21.43 6.81095 21.265 6.93913 21.1605C7.06732 21.056 7.24151 21.0278 7.39611 21.0866C7.5507 21.1454 7.6622 21.2821 7.68861 21.4454C7.76809 21.9307 7.91665 22.4021 8.12976 22.8453C8.19195 22.9752 8.19012 23.1266 8.12481 23.255C8.05949 23.3834 7.93813 23.474 7.7965 23.5002C7.28148 23.595 6.75887 23.6426 6.2352 23.6424Z" fill="#F29C1F"/>
<path d="M5.63019 21.9394C5.60812 21.9395 5.58608 21.9379 5.56423 21.9348C4.96574 21.8473 4.37936 21.6909 3.81677 21.4688C3.66084 21.4097 3.54873 21.2714 3.52326 21.1066C3.4978 20.9418 3.56292 20.7761 3.69375 20.6727C3.82458 20.5694 4.00089 20.5444 4.1553 20.6073C4.48448 20.7368 4.82293 20.8414 5.1678 20.9202C5.18327 20.5438 5.22999 20.1693 5.30749 19.8006C5.34164 19.6388 5.45953 19.5075 5.61673 19.4562C5.77394 19.4049 5.94659 19.4413 6.06964 19.5518C6.19269 19.6623 6.24745 19.83 6.2133 19.9918C6.11242 20.4736 6.07188 20.966 6.09263 21.4577C6.09776 21.5836 6.05133 21.7062 5.96405 21.7971C5.87678 21.888 5.75621 21.9394 5.63019 21.9394Z" fill="#F29C1F"/>
<path d="M4.30543 19.8117C4.23143 19.8117 4.15851 19.7939 4.09279 19.7599C3.56278 19.4838 3.06571 19.1486 2.6111 18.7608C2.48506 18.6537 2.42571 18.4875 2.45541 18.3248C2.48511 18.1621 2.59935 18.0277 2.75509 17.972C2.91083 17.9164 3.08441 17.9481 3.21045 18.0552C3.47599 18.2812 3.75766 18.4876 4.05322 18.6726C4.19043 18.3239 4.35446 17.9864 4.54384 17.663C4.67417 17.4446 4.95636 17.3722 5.17571 17.5011C5.39506 17.6299 5.46936 17.9115 5.34208 18.1318C5.09275 18.5591 4.89325 19.0136 4.7475 19.4864C4.68716 19.6799 4.50809 19.8117 4.30543 19.8119V19.8117Z" fill="#F29C1F"/>
<path d="M3.7378 17.3724C3.61283 17.3724 3.49317 17.3219 3.40603 17.2323C2.98732 16.7992 2.61704 16.3218 2.30175 15.8085C2.16744 15.5909 2.23493 15.3057 2.4525 15.1714C2.67006 15.0371 2.95531 15.1046 3.08962 15.3221C3.27552 15.624 3.48237 15.9124 3.70864 16.1853C3.9424 15.9013 4.19773 15.6357 4.47236 15.391C4.66385 15.2248 4.95341 15.2437 5.1218 15.4332C5.29018 15.6228 5.2747 15.9126 5.08707 16.0831C4.72258 16.4092 4.39672 16.7761 4.11591 17.1766C4.03647 17.2889 3.91116 17.3602 3.77395 17.371C3.76196 17.372 3.74974 17.3724 3.7378 17.3724Z" fill="#F29C1F"/>
<path d="M3.9271 14.8712C3.89079 14.8712 3.8546 14.8669 3.81926 14.8586C3.68565 14.8265 3.57317 14.7367 3.51215 14.6136C3.24348 14.0681 3.03537 13.4947 2.89155 12.9039C2.85046 12.7427 2.89903 12.5718 3.01878 12.4563C3.13853 12.3409 3.31103 12.2985 3.47063 12.3455C3.63023 12.3924 3.75237 12.5214 3.79056 12.6833C3.87632 13.034 3.98712 13.3781 4.1221 13.713C4.4303 13.5181 4.75358 13.3481 5.08887 13.2047C5.241 13.1398 5.41617 13.1611 5.54839 13.2604C5.68061 13.3598 5.74979 13.5221 5.72988 13.6862C5.70996 13.8504 5.60398 13.9915 5.45184 14.0563C5.00872 14.247 4.58985 14.4897 4.20407 14.7793C4.12409 14.839 4.02693 14.8713 3.9271 14.8712Z" fill="#F29C1F"/>
<path d="M4.87323 12.5566C4.6419 12.5566 4.4461 12.3858 4.41468 12.1566C4.33227 11.5504 4.32263 10.9365 4.38598 10.328C4.40047 10.1615 4.50358 10.0158 4.65576 9.94668C4.80793 9.87759 4.98553 9.8959 5.12041 9.99458C5.25528 10.0933 5.32649 10.257 5.3067 10.4229C5.2697 10.7807 5.26108 11.1409 5.28092 11.5001C5.64271 11.414 6.01088 11.3575 6.38182 11.331C6.63682 11.313 6.85811 11.5052 6.87608 11.7602C6.89405 12.0152 6.7019 12.2365 6.4469 12.2545C5.96006 12.29 5.47926 12.384 5.01491 12.5345C4.96913 12.5492 4.92132 12.5567 4.87323 12.5566Z" fill="#F29C1F"/>
</svg>
