<svg width="93" height="25" viewBox="0 0 93 25" fill="none" xmlns="http://www.w3.org/2000/svg">
<path d="M0 24.5873H13.4342V22.4553H2.34674V0.412656H0V24.5873Z" fill="black"/>
<path d="M14.809 12.3109C14.809 19.4292 20.0127 25 26.9849 25C33.9911 25 39.1607 19.4292 39.1607 12.3109C39.1607 5.3989 33.9911 0 26.9849 0C20.0127 0 14.809 5.3989 14.809 12.3109ZM17.2578 12.3109C17.2578 6.60248 21.4071 2.23521 26.9849 2.23521C32.5966 2.23521 36.7119 6.60248 36.7119 12.3109C36.7119 18.2256 32.5966 22.7648 26.9849 22.7648C21.4071 22.7648 17.2578 18.2256 17.2578 12.3109Z" fill="black"/>
<path d="M42.9085 12.4828C42.9085 19.6699 48.0782 25 54.6423 25C57.8053 25 60.7302 23.6245 62.4307 21.7332H62.4987C62.4987 21.7332 62.4647 22.249 62.4647 22.7648V24.5873H64.6074V13.033H58.3154V15.1651H62.3967V19.2572C60.5261 21.3893 57.7372 22.7648 54.8803 22.7648C49.4046 22.7648 45.3573 18.3975 45.3573 12.4484C45.3573 6.74003 49.2686 2.23521 55.0844 2.23521C57.6352 2.23521 60.5261 3.23246 62.1926 4.64237L63.485 2.81981C61.1383 0.894086 57.9753 0 54.9824 0C48.1122 0 42.9085 5.50206 42.9085 12.4828Z" fill="black"/>
<path d="M68.6483 12.3109C68.6483 19.4292 73.852 25 80.8242 25C87.8304 25 93 19.4292 93 12.3109C93 5.3989 87.8304 0 80.8242 0C73.852 0 68.6483 5.3989 68.6483 12.3109ZM71.0971 12.3109C71.0971 6.60248 75.2464 2.23521 80.8242 2.23521C86.4359 2.23521 90.5512 6.60248 90.5512 12.3109C90.5512 18.2256 86.4359 22.7648 80.8242 22.7648C75.2464 22.7648 71.0971 18.2256 71.0971 12.3109Z" fill="black"/>
</svg>
