<svg width="21" height="22" viewBox="0 0 21 22" fill="none" xmlns="http://www.w3.org/2000/svg">
<path d="M13.2753 3.79648L14.7926 3.41715L15.9307 3.79648L17.8273 4.17581L18.9654 3.41715C19.6007 4.08214 20.1489 4.82524 20.5965 5.62867L20.4827 5.69317L18.2067 6.45183L15.9307 6.0725L15.172 4.93447H12.896L11.758 6.0725L12.1373 8.72784L14.7927 9.86587L16.31 9.48654L17.4481 10.2452V11.7626L18.2067 13.2799L18.9654 14.7973V16.3146L19.9896 17.3388C16.4864 22.3029 9.62227 23.4868 4.65864 19.9836C0.44305 17.008 -1.13842 11.5027 0.855766 6.74393L1.51581 8.72784L2.65384 9.4865L3.79187 10.2452L3.03317 11.0039V12.1419L3.79183 13.6592L5.68851 14.0386V17.832L6.44717 19.7286L7.5852 20.108V18.2113L9.10256 17.0733V15.9352L10.6199 14.4179L10.9992 12.5212H9.48189L8.34386 10.6245H5.68851L4.92986 9.10713L3.79183 10.2452V8.7278L3.03317 7.96919V6.83116L5.68851 6.45183L7.5852 5.3138L8.72323 3.41711L9.86126 3.03778L10.2406 1.89975L7.96457 1.52042L6.88726 0.799663C9.80437 -0.375148 13.0849 -0.245425 15.9003 1.15626L14.4133 1.89975H12.8959L12.1373 3.41711L13.2753 3.79648Z" fill="#86DAF1"/>
</svg>
