<svg width="40" height="40" viewBox="0 0 40 40" fill="none" xmlns="http://www.w3.org/2000/svg">
<g clip-path="url(#clip0)">
<path d="M13.3309 6.2069L9.65503 0H16.324L19.9999 6.2069H13.3309Z" fill="#FB7B76"/>
<path d="M20 6.2069L23.6759 0H30.3448L26.669 6.2069H20Z" fill="#FF5364"/>
<path d="M27.1585 6.55871C27.07 6.20767 26.8471 5.90547 26.5378 5.71733C26.3211 5.58715 26.0733 5.51803 25.8205 5.51733H14.1792C13.9485 5.51898 13.7215 5.57573 13.5171 5.68285C13.1783 5.86638 12.9329 6.18449 12.8412 6.55871L11.8481 10.5311H28.1516L27.1585 6.55871Z" fill="#547580"/>
<path d="M19.9998 40C28.7601 40 35.8618 32.8983 35.8618 24.1379C35.8618 15.3776 28.7601 8.27588 19.9998 8.27588C11.2394 8.27588 4.1377 15.3776 4.1377 24.1379C4.1377 32.8983 11.2394 40 19.9998 40Z" fill="#F0C419"/>
<path d="M34.4067 17.5102C28.391 15.3113 21.6431 16.9469 17.3018 21.6562C12.9606 26.3656 11.8783 33.224 14.5584 39.0413C7.80518 36.5777 3.55275 29.8807 4.1953 22.7209C4.83785 15.5611 10.2148 9.72834 17.2987 8.50654C24.3827 7.28474 31.4029 10.9793 34.4067 17.5102Z" fill="#F3D55B"/>
<path d="M24.131 37.2419C24.0668 37.2418 24.0028 37.2327 23.9411 37.2149C22.9528 36.9326 21.995 36.5528 21.0818 36.0811C20.8729 35.973 20.7334 35.7659 20.7119 35.5317C20.6904 35.2974 20.7897 35.0684 20.9754 34.924C21.6055 34.441 22.1569 33.8632 22.6099 33.2113C22.8272 32.9023 23.2526 32.8255 23.5641 33.0391C23.8757 33.2527 23.9574 33.6772 23.7475 33.9913C23.4243 34.4608 23.0557 34.8974 22.647 35.2947C23.1917 35.5275 23.7506 35.7259 24.3202 35.8888C24.6513 35.9829 24.8623 36.3068 24.8147 36.6477C24.767 36.9886 24.4752 37.2422 24.131 37.2418L24.131 37.2419Z" fill="#F29C1F"/>
<path d="M27.8296 35.227C27.0493 35.2273 26.2707 35.1565 25.5034 35.0152C25.2923 34.9762 25.1115 34.8411 25.0142 34.6498C24.9169 34.4585 24.9141 34.2329 25.0068 34.0393C25.3243 33.379 25.5457 32.6766 25.6641 31.9535C25.725 31.5774 26.0791 31.3219 26.4552 31.3827C26.8312 31.4436 27.0867 31.7977 27.0259 32.1738C26.9368 32.722 26.7968 33.2608 26.6077 33.7831C27.1599 33.8416 27.7156 33.8604 28.2705 33.8393C28.6512 33.8248 28.9716 34.1216 28.9861 34.5023C29.0006 34.883 28.7038 35.2034 28.3231 35.2179C28.1587 35.224 27.9942 35.227 27.8296 35.227Z" fill="#F29C1F"/>
<path d="M28.7309 32.6898C28.5431 32.6898 28.3634 32.6132 28.2334 32.4777C28.1033 32.3422 28.0341 32.1595 28.0418 31.9719C28.0728 31.2392 28.0124 30.5055 27.8621 29.7877C27.8112 29.5466 27.8928 29.2967 28.0761 29.1321C28.2595 28.9675 28.5167 28.9132 28.7509 28.9896C28.9852 29.0661 29.1608 29.2617 29.2117 29.5028C29.3272 30.0522 29.3968 30.6102 29.4199 31.171C29.9337 31.0536 30.438 30.8977 30.9285 30.7047C31.1585 30.611 31.4212 30.6482 31.6162 30.8022C31.8111 30.9563 31.9082 31.2032 31.8702 31.4487C31.8323 31.6942 31.6652 31.9004 31.4329 31.9884C30.5946 32.3194 29.7208 32.5525 28.829 32.6829C28.7965 32.6876 28.7637 32.6899 28.7309 32.6898Z" fill="#F29C1F"/>
<path d="M30.7047 29.5191C30.4027 29.5189 30.1359 29.3224 30.046 29.0342C29.8288 28.3298 29.5315 27.6527 29.16 27.016C28.9704 26.6879 29.0811 26.2682 29.4079 26.0763C29.7348 25.8843 30.1552 25.9921 30.3494 26.3176C30.6316 26.7994 30.876 27.3023 31.0804 27.8219C31.5208 27.5462 31.9405 27.2387 32.3362 26.9019C32.524 26.7424 32.7826 26.6952 33.0147 26.778C33.2467 26.8609 33.4169 27.0613 33.4612 27.3037C33.5054 27.5461 33.417 27.7937 33.2292 27.9532C32.5518 28.5312 31.8112 29.0306 31.0215 29.442C30.9236 29.4926 30.8149 29.519 30.7047 29.5191Z" fill="#F29C1F"/>
<path d="M31.5508 25.8849C31.533 25.8849 31.5148 25.8842 31.497 25.8829C31.2925 25.8669 31.1058 25.7607 30.9874 25.5933C30.569 24.9966 30.0835 24.45 29.5405 23.9641C29.2609 23.71 29.2378 23.2782 29.4887 22.9958C29.7396 22.7133 30.1711 22.6853 30.4564 22.9329C30.8656 23.2975 31.246 23.6932 31.5943 24.1163C31.9315 23.7097 32.2397 23.28 32.5167 22.8302C32.7168 22.5061 33.1418 22.4055 33.466 22.6056C33.7902 22.8057 33.8907 23.2308 33.6906 23.5549C33.2208 24.3198 32.6691 25.0311 32.0452 25.6765C31.9153 25.8098 31.737 25.885 31.5508 25.8849Z" fill="#F29C1F"/>
<path d="M31.2686 22.1582C31.1199 22.1582 30.9752 22.1101 30.8561 22.0211C30.2813 21.5896 29.6572 21.228 28.9969 20.9439C28.7703 20.8473 28.6123 20.6371 28.5827 20.3925C28.553 20.1479 28.6561 19.906 28.8531 19.758C29.0501 19.61 29.3111 19.5783 29.5378 19.6749C30.0373 19.8886 30.5189 20.1419 30.978 20.4323C31.1792 19.9334 31.3443 19.4206 31.472 18.898C31.5289 18.6568 31.7109 18.4646 31.9487 18.3947C32.1865 18.3248 32.4436 18.3879 32.622 18.5599C32.8004 18.732 32.8728 18.9865 32.8116 19.2267C32.5973 20.1071 32.2872 20.9614 31.8869 21.7743C31.796 21.9577 31.6284 22.0914 31.4293 22.1393C31.3766 22.1517 31.3227 22.158 31.2686 22.1582Z" fill="#F29C1F"/>
<path d="M29.8588 18.7093C29.7871 18.7094 29.7159 18.6982 29.6477 18.6763C28.9558 18.4521 28.2394 18.312 27.514 18.2591C27.1341 18.2323 26.8478 17.9026 26.8745 17.5226C26.9013 17.1427 27.231 16.8564 27.611 16.8831C28.1637 16.9226 28.7123 17.0068 29.2513 17.135C29.2809 16.5999 29.268 16.0632 29.2129 15.5301C29.1834 15.2829 29.2895 15.0389 29.4905 14.8919C29.6914 14.7448 29.9561 14.7175 30.1828 14.8205C30.4095 14.9234 30.5632 15.1406 30.5848 15.3887C30.6792 16.2953 30.6648 17.21 30.542 18.1133C30.4952 18.4548 30.2035 18.7093 29.8588 18.7093Z" fill="#F29C1F"/>
<path d="M15.8691 37.2418C15.5249 37.2421 15.2331 36.9886 15.1854 36.6477C15.1377 36.3068 15.3487 35.9829 15.6799 35.8888C16.2495 35.7259 16.8083 35.5275 17.3531 35.2947C16.9444 34.8974 16.5758 34.4608 16.2526 33.9913C16.0427 33.6772 16.1244 33.2527 16.4359 33.0391C16.7475 32.8255 17.1729 32.9023 17.3901 33.2113C17.8432 33.8632 18.3946 34.441 19.0246 34.924C19.2104 35.0684 19.3097 35.2974 19.2882 35.5317C19.2667 35.7659 19.1272 35.973 18.9183 36.0811C18.0051 36.5528 17.0473 36.9326 16.059 37.2149C15.9973 37.2327 15.9333 37.2417 15.8691 37.2418Z" fill="#F29C1F"/>
<path d="M12.1701 35.2269C12.0057 35.2269 11.8413 35.2239 11.6767 35.2178C11.296 35.2033 10.9992 34.8829 11.0137 34.5022C11.0282 34.1215 11.3486 33.8247 11.7293 33.8392C12.2842 33.8606 12.8399 33.8418 13.3921 33.783C13.203 33.2607 13.063 32.7219 12.9739 32.1737C12.9346 31.9304 13.028 31.6846 13.219 31.5289C13.41 31.3732 13.6695 31.3312 13.8999 31.4188C14.1302 31.5063 14.2963 31.7101 14.3357 31.9534C14.4541 32.6765 14.6755 33.3789 14.993 34.0392C15.0857 34.2328 15.0829 34.4584 14.9856 34.6497C14.8883 34.841 14.7075 34.9761 14.4965 35.0151C13.7291 35.1564 12.9504 35.2272 12.1701 35.2269Z" fill="#F29C1F"/>
<path d="M11.2688 32.6896C11.2359 32.6897 11.203 32.6874 11.1705 32.6827C10.2787 32.5523 9.40503 32.3193 8.56677 31.9883C8.33444 31.9004 8.16738 31.6942 8.12944 31.4487C8.0915 31.2032 8.18854 30.9563 8.38347 30.8022C8.57841 30.6482 8.84111 30.611 9.07118 30.7047C9.56166 30.8977 10.066 31.0536 10.5798 31.171C10.6029 30.6102 10.6725 30.0522 10.7879 29.5028C10.8388 29.2617 11.0145 29.0661 11.2487 28.9896C11.483 28.9132 11.7402 28.9675 11.9235 29.1321C12.1069 29.2967 12.1885 29.5466 12.1376 29.7877C11.9873 30.5055 11.9269 31.2392 11.9578 31.9719C11.9654 32.1595 11.8963 32.3421 11.7662 32.4775C11.6362 32.613 11.4565 32.6896 11.2688 32.6896Z" fill="#F29C1F"/>
<path d="M9.29485 29.5191C9.1846 29.5191 9.07595 29.4926 8.97802 29.442C8.1883 29.0306 7.44768 28.5312 6.7703 27.9532C6.5825 27.7937 6.49408 27.5461 6.53833 27.3037C6.58258 27.0613 6.75279 26.8609 6.98485 26.778C7.2169 26.6952 7.47554 26.7424 7.66334 26.9019C8.05899 27.2387 8.47868 27.5462 8.91906 27.8219C9.12351 27.3023 9.36792 26.7994 9.65009 26.3176C9.84428 25.9921 10.2647 25.8843 10.5916 26.0763C10.9184 26.2682 11.0291 26.6879 10.8395 27.016C10.468 27.6528 10.1707 28.33 9.95354 29.0345C9.86363 29.3227 9.59682 29.5191 9.29485 29.5194V29.5191Z" fill="#F29C1F"/>
<path d="M8.4492 25.885C8.26299 25.885 8.08469 25.8097 7.95485 25.6762C7.33098 25.0309 6.77926 24.3195 6.30947 23.5547C6.10935 23.2305 6.20992 22.8055 6.53409 22.6054C6.85827 22.4053 7.28329 22.5058 7.4834 22.83C7.76039 23.2797 8.06859 23.7095 8.40575 24.1161C8.75405 23.6929 9.13449 23.2973 9.54368 22.9327C9.829 22.685 10.2605 22.7131 10.5113 22.9955C10.7622 23.278 10.7392 23.7097 10.4596 23.9639C9.91651 24.4498 9.43099 24.9964 9.01258 25.5931C8.89421 25.7606 8.7075 25.8667 8.50306 25.8827C8.4852 25.8843 8.46699 25.885 8.4492 25.885Z" fill="#F29C1F"/>
<path d="M8.73111 22.1584C8.677 22.1583 8.62308 22.1519 8.57042 22.1395C8.37134 22.0917 8.20375 21.958 8.11283 21.7745C7.71251 20.9616 7.40243 20.1074 7.18814 19.227C7.12691 18.9868 7.19928 18.7322 7.37771 18.5602C7.55613 18.3881 7.81316 18.325 8.05096 18.395C8.28877 18.4649 8.47075 18.657 8.52766 18.8983C8.65544 19.4209 8.82053 19.9336 9.02166 20.4326C9.48087 20.1421 9.96256 19.8889 10.4621 19.6752C10.6888 19.5786 10.9498 19.6102 11.1468 19.7582C11.3438 19.9062 11.4469 20.1481 11.4172 20.3927C11.3876 20.6373 11.2296 20.8475 11.003 20.9442C10.3427 21.2282 9.7186 21.5899 9.1438 22.0214C9.02461 22.1104 8.87984 22.1584 8.73111 22.1584Z" fill="#F29C1F"/>
<path d="M10.1412 18.7093C9.79655 18.7093 9.5048 18.4548 9.45799 18.1133C9.3352 17.21 9.32084 16.2953 9.41523 15.3887C9.43682 15.1406 9.59046 14.9234 9.8172 14.8205C10.0439 14.7175 10.3086 14.7448 10.5095 14.8919C10.7105 15.0389 10.8166 15.2829 10.7871 15.5301C10.732 16.0632 10.7191 16.5999 10.7487 17.135C11.2878 17.0068 11.8363 16.9226 12.389 16.8831C12.769 16.8564 13.0987 17.1427 13.1255 17.5226C13.1523 17.9026 12.8659 18.2323 12.486 18.2591C11.7606 18.312 11.0442 18.4521 10.3523 18.6763C10.2841 18.6982 10.2129 18.7094 10.1412 18.7093Z" fill="#F29C1F"/>
</g>
<defs>
<clipPath id="clip0">
<rect width="40" height="40" fill="white"/>
</clipPath>
</defs>
</svg>
