<svg width="30" height="26" viewBox="0 0 30 26" fill="none" xmlns="http://www.w3.org/2000/svg">
<path d="M28.3135 10.6475L28.3604 10.6577H8.28574L14.5965 4.33309C14.9055 4.02431 15.075 3.60602 15.075 3.16699C15.075 2.72797 14.9055 2.3126 14.5965 2.00309L13.6145 1.02065C13.3057 0.711869 12.8943 0.541138 12.4555 0.541138C12.0165 0.541138 11.6048 0.71065 11.296 1.01943L0.478177 11.8363C0.168177 12.1463 -0.00133505 12.5592 -0.000115536 12.9985C-0.00133505 13.4402 0.168177 13.8533 0.478177 14.1628L11.296 24.9806C11.6048 25.2892 12.0162 25.4589 12.4555 25.4589C12.8943 25.4589 13.3057 25.2889 13.6145 24.9806L14.5965 23.9982C14.9055 23.6899 15.075 23.2782 15.075 22.8392C15.075 22.4004 14.9055 22.0104 14.5965 21.7019L8.21452 15.3419H28.336C29.2401 15.3419 29.9999 14.5626 29.9999 13.6589V12.2694C29.9999 11.3658 29.2177 10.6475 28.3135 10.6475Z" fill="#888888"/>
</svg>
